<svg width="336" height="49" viewBox="0 0 336 49" fill="none" xmlns="http://www.w3.org/2000/svg">
<path d="M73.724 33.768C79.576 33.768 83.3 30.856 83.3 26.096V25.676H78.624V26.096C78.624 28.56 77.224 29.736 73.808 29.736C69.692 29.736 68.152 28.28 68.152 24.108C68.152 19.936 69.692 18.48 73.808 18.48C77.224 18.48 78.624 19.656 78.624 22.12V22.54H83.3V22.12C83.3 17.36 79.548 14.448 73.724 14.448C67.536 14.448 63.7 18.256 63.7 24.108C63.7 29.96 67.536 33.768 73.724 33.768ZM89.32 33.488V14.728H85.12V33.488H89.32ZM98.9664 33.768C103.418 33.768 106.386 31.64 106.386 28.588V28.28H102.186V28.56C102.186 29.764 101.318 30.408 98.8264 30.408C96.1104 30.408 95.1024 29.484 94.9904 27.328H106.414C106.47 26.852 106.526 26.488 106.526 25.984C106.526 21.588 103.474 19.18 98.8824 19.18C94.2624 19.18 91.0984 22.008 91.0984 26.488C91.0984 31.472 94.2904 33.768 98.9664 33.768ZM98.7984 22.456C101.262 22.456 102.382 23.268 102.494 25.116H95.0464C95.2424 23.296 96.3064 22.456 98.7984 22.456ZM118.752 33.488L125.164 19.46H120.572L116.344 29.4H116.064L111.864 19.46H107.188L113.572 33.488H118.752ZM133.72 33.768C138.172 33.768 141.14 31.64 141.14 28.588V28.28H136.94V28.56C136.94 29.764 136.072 30.408 133.58 30.408C130.864 30.408 129.856 29.484 129.744 27.328H141.168C141.224 26.852 141.28 26.488 141.28 25.984C141.28 21.588 138.228 19.18 133.636 19.18C129.016 19.18 125.852 22.008 125.852 26.488C125.852 31.472 129.044 33.768 133.72 33.768ZM133.552 22.456C136.016 22.456 137.136 23.268 137.248 25.116H129.8C129.996 23.296 131.06 22.456 133.552 22.456ZM147.261 33.488V25.368C147.261 23.604 147.933 22.736 149.809 22.736C151.517 22.736 152.133 23.408 152.133 24.948V26.404H156.333V24.08C156.333 21.336 155.045 19.18 151.909 19.18C149.081 19.18 147.597 20.916 147.205 23.184H146.953V19.46H143.061V33.488H147.261ZM166.375 33.488V24.444L166.207 21H166.487L168.867 24.528L175.783 33.488H180.263V14.728H176.063V23.772L176.259 27.552H175.951L173.375 23.604L166.655 14.728H162.175V33.488H166.375ZM189.967 33.768C194.755 33.768 197.975 30.912 197.975 26.488C197.975 22.008 194.755 19.18 189.967 19.18C185.179 19.18 181.959 22.008 181.959 26.488C181.959 30.912 185.179 33.768 189.967 33.768ZM189.967 30.044C187.111 30.044 186.131 28.952 186.131 26.488C186.131 24.024 187.111 22.876 189.967 22.876C192.795 22.876 193.803 24.024 193.803 26.488C193.803 28.952 192.795 30.044 189.967 30.044ZM209.574 33.488V29.708H207.054C205.57 29.708 205.038 29.344 205.038 27.944V22.932H209.574V19.46H205.038V16.744H200.838V19.46H198.626V22.932H200.838V28.42C200.838 31.948 202.826 33.488 206.102 33.488H209.574ZM215.347 18.032V14.728H211.147V18.032H215.347ZM215.347 33.488V19.46H211.147V33.488H215.347ZM222.866 33.488V22.932H227.206V19.46H222.698C222.586 18.088 223.454 17.78 225.302 17.78H227.206V14.728H225.974C221.662 14.728 219.198 16.632 218.75 19.46H216.678V22.932H218.666V33.488H222.866ZM232.806 18.032V14.728H228.606V18.032H232.806ZM232.806 33.488V19.46H228.606V33.488H232.806ZM242.494 33.768C247.002 33.768 250.082 31.332 250.082 27.72V27.328H245.91V27.552C245.91 29.344 244.594 29.988 242.41 29.988C239.918 29.988 238.77 29.064 238.77 26.488C238.77 23.884 239.918 22.96 242.41 22.96C244.594 22.96 245.91 23.604 245.91 25.396V25.62H250.082V25.228C250.082 21.588 247.002 19.18 242.494 19.18C237.678 19.18 234.598 22.008 234.598 26.488C234.598 30.912 237.678 33.768 242.494 33.768ZM256.202 33.768C259.31 33.768 261.27 32.452 261.914 30.268H262.138V33.488H266.058V25.256C266.058 21.588 263.846 19.18 259.17 19.18C254.55 19.18 251.638 21.588 251.638 25.06V25.144H255.866V25.032C255.866 23.436 256.734 22.876 258.862 22.876C261.102 22.876 261.914 23.38 261.914 25.2V25.732L255.894 26.348C252.898 26.656 251.358 27.944 251.358 30.016C251.358 32.368 253.178 33.768 256.202 33.768ZM255.586 29.736C255.586 29.064 256.034 28.784 257.042 28.7L261.914 28.14C261.802 30.128 260.262 30.8 257.406 30.8C256.174 30.8 255.586 30.492 255.586 29.736ZM278.07 33.488V29.708H275.55C274.066 29.708 273.534 29.344 273.534 27.944V22.932H278.07V19.46H273.534V16.744H269.334V19.46H267.122V22.932H269.334V28.42C269.334 31.948 271.322 33.488 274.598 33.488H278.07ZM283.843 18.032V14.728H279.643V18.032H283.843ZM283.843 33.488V19.46H279.643V33.488H283.843ZM293.518 33.768C298.306 33.768 301.526 30.912 301.526 26.488C301.526 22.008 298.306 19.18 293.518 19.18C288.73 19.18 285.51 22.008 285.51 26.488C285.51 30.912 288.73 33.768 293.518 33.768ZM293.518 30.044C290.662 30.044 289.682 28.952 289.682 26.488C289.682 24.024 290.662 22.876 293.518 22.876C296.346 22.876 297.354 24.024 297.354 26.488C297.354 28.952 296.346 30.044 293.518 30.044ZM307.441 33.488V26.404C307.441 24.024 308.393 22.96 311.053 22.96C313.629 22.96 314.553 23.912 314.553 26.152V33.488H318.753V24.752C318.753 21.644 316.933 19.18 313.097 19.18C309.429 19.18 307.749 21.42 307.385 23.772H307.133V19.46H303.241V33.488H307.441ZM327.962 33.768C332.302 33.768 334.906 32.032 334.906 29.4C334.906 27.076 333.506 25.816 329.754 25.396L326.758 25.032C324.91 24.808 324.518 24.5 324.518 23.772C324.518 22.876 325.05 22.512 327.15 22.512C329.726 22.512 330.286 23.1 330.286 24.248V24.416H334.486V24.332C334.486 20.916 331.882 19.18 327.29 19.18C322.474 19.18 320.374 21.14 320.374 23.604C320.374 25.956 321.942 27.216 324.742 27.524L328.69 28C330.342 28.224 330.762 28.448 330.762 29.232C330.762 30.072 330.23 30.436 327.99 30.436C325.61 30.436 324.826 30.1 324.826 28.84V28.588H320.626V28.672C320.626 31.92 323.23 33.768 327.962 33.768Z" fill="black"/>
<circle cx="24" cy="24.488" r="24" fill="#FF5555"/>
<path d="M26 33.488H22M30 20.488C30 18.8967 29.3679 17.3706 28.2427 16.2454C27.1174 15.1202 25.5913 14.488 24 14.488C22.4087 14.488 20.8826 15.1202 19.7574 16.2454C18.6322 17.3706 18 18.8967 18 20.488C18 23.5782 17.2205 25.694 16.3497 27.0934C15.6151 28.2739 15.2479 28.8641 15.2613 29.0288C15.2763 29.2111 15.3149 29.2806 15.4618 29.3896C15.5945 29.488 16.1926 29.488 17.3889 29.488H30.6112C31.8074 29.488 32.4056 29.488 32.5382 29.3896C32.6852 29.2806 32.7238 29.2111 32.7387 29.0288C32.7522 28.8641 32.3849 28.2739 31.6504 27.0935C30.7795 25.694 30 23.5782 30 20.488Z" stroke="white" stroke-width="2" stroke-linecap="round" stroke-linejoin="round"/>
</svg>
