<svg width="172" height="27" viewBox="0 0 172 27" fill="none" xmlns="http://www.w3.org/2000/svg">
<path d="M34.528 18.709V14.085H40.832V18.709H42.544V7.98898H40.832V12.533H34.528V7.98898H32.8V18.709H34.528ZM48.1594 18.869C50.5274 18.869 52.1914 17.701 52.1914 16.005V15.861H50.4634V15.989C50.4634 16.933 49.7754 17.477 48.1114 17.477C46.2714 17.477 45.5194 16.661 45.4554 15.125H52.2074C52.2554 14.885 52.2714 14.661 52.2714 14.373C52.2714 11.957 50.5914 10.597 48.1274 10.597C45.5354 10.597 43.8394 12.261 43.8394 14.741C43.8394 17.397 45.5514 18.869 48.1594 18.869ZM48.0954 11.957C49.7914 11.957 50.6394 12.661 50.6394 14.133V14.165H45.4714C45.5674 12.741 46.3354 11.957 48.0954 11.957ZM55.2936 18.709V7.98898H53.5656V18.709H55.2936ZM58.6218 21.429V16.469H58.6858C59.0058 17.925 60.1578 18.869 61.9498 18.869C64.4298 18.869 65.7898 17.205 65.7898 14.741C65.7898 12.277 64.3978 10.597 61.9338 10.597C60.0618 10.597 58.9418 11.493 58.6218 12.965H58.4778V10.757H56.8938V21.429H58.6218ZM58.6218 14.869V14.725C58.6218 13.013 59.6138 12.181 61.3898 12.181C63.0538 12.181 64.0618 12.821 64.0618 14.741C64.0618 16.645 63.0698 17.301 61.3578 17.301C59.6618 17.301 58.6218 16.501 58.6218 14.869ZM72.5395 18.053C73.9155 18.053 74.6195 17.237 74.8755 16.341H74.9555C75.1475 17.365 75.9315 18.053 77.3235 18.053C79.0515 18.053 80.1715 16.501 80.1715 14.037C80.1715 10.389 77.6275 8.16498 73.5795 8.16498C69.2115 8.16498 66.4275 10.741 66.4275 14.741C66.4275 18.693 68.9395 21.093 72.9555 21.093C74.2515 21.093 75.2115 20.885 76.1075 20.549L75.8195 19.381C75.0195 19.621 74.2035 19.765 73.1155 19.765C69.7235 19.765 67.9795 18.341 67.9795 14.741C67.9795 11.045 69.8035 9.60498 73.4995 9.60498C77.1475 9.60498 78.6995 11.093 78.6995 14.165C78.6995 16.133 78.2995 16.741 77.4355 16.741C76.7955 16.741 76.5235 16.437 76.5235 15.717V11.669H75.0195V13.253H74.9075C74.6675 12.245 73.8675 11.525 72.5715 11.525C70.8755 11.525 69.6595 12.677 69.6595 14.789C69.6595 16.997 70.8915 18.053 72.5395 18.053ZM71.2595 14.789C71.2595 13.349 71.8515 12.757 73.0835 12.757C74.1715 12.757 74.9075 13.349 74.9075 14.597V14.981C74.9075 16.245 74.1715 16.837 73.0835 16.837C71.8515 16.837 71.2595 16.229 71.2595 14.789ZM83.0124 18.709V14.405H89.5724V12.869H83.0124V9.54098H89.8124V7.98898H81.2844V18.709H83.0124ZM92.8249 18.709V14.245C92.8249 12.821 93.3849 12.069 94.7449 12.069C95.9289 12.069 96.4089 12.597 96.4089 13.733V14.437H98.1209V13.397C98.1209 11.893 97.3369 10.597 95.5289 10.597C93.8969 10.597 93.0329 11.621 92.7929 12.901H92.6809V10.757H91.0969V18.709H92.8249ZM100.486 21.429C102.118 21.429 103.014 20.997 103.67 19.573L107.814 10.757H105.91L104.038 14.965L103.286 16.885H103.158L102.374 14.981L100.342 10.757H98.4062L102.326 18.709L102.134 19.125C101.894 19.669 101.606 19.861 100.902 19.861H99.3503V21.429H100.486ZM110.243 18.709V16.421H110.355C110.691 18.005 111.859 18.869 113.667 18.869C116.195 18.869 117.555 17.189 117.555 14.741C117.555 12.261 116.211 10.597 113.763 10.597C111.859 10.597 110.803 11.573 110.483 12.917H110.387V7.98898H108.659V18.709H110.243ZM110.387 14.821V14.693C110.387 12.997 111.363 12.165 113.155 12.165C114.851 12.165 115.827 12.821 115.827 14.741C115.827 16.645 114.867 17.285 113.123 17.285C111.411 17.285 110.387 16.485 110.387 14.821ZM120.481 9.82898V7.98898H118.753V9.82898H120.481ZM120.481 18.709V10.757H118.753V18.709H120.481ZM123.393 18.709L126.001 15.669H126.113L128.753 18.709H130.849L127.425 14.741V14.645L130.849 10.757H128.769L126.161 13.765H126.065L123.425 10.757H121.329L124.753 14.677V14.773L121.329 18.709H123.393ZM133.547 18.709V16.229H131.371V18.709H133.547ZM140.047 18.869C143.087 18.869 145.183 17.269 145.183 14.693V14.485H143.279V14.693C143.279 16.341 142.239 17.205 140.063 17.205C137.551 17.205 136.335 16.021 136.335 13.349C136.335 10.677 137.551 9.47698 140.063 9.47698C142.239 9.47698 143.279 10.357 143.279 11.989V12.213H145.183V11.989C145.183 9.42898 143.071 7.82898 140.047 7.82898C136.719 7.82898 134.511 10.005 134.511 13.349C134.511 16.693 136.719 18.869 140.047 18.869ZM150.52 18.869C153.176 18.869 154.952 17.189 154.952 14.741C154.952 12.261 153.176 10.597 150.52 10.597C147.88 10.597 146.104 12.261 146.104 14.741C146.104 17.189 147.88 18.869 150.52 18.869ZM150.52 17.333C148.6 17.333 147.8 16.421 147.8 14.741C147.8 13.045 148.6 12.117 150.52 12.117C152.456 12.117 153.256 13.045 153.256 14.741C153.256 16.421 152.456 17.333 150.52 17.333ZM157.934 18.709V14.773C157.934 13.013 158.526 12.149 160.238 12.149C161.774 12.149 162.382 12.821 162.382 14.389V18.709H164.094V14.773C164.094 13.013 164.702 12.149 166.398 12.149C167.934 12.149 168.558 12.821 168.558 14.389V18.709H170.27V13.925C170.27 12.005 169.23 10.597 167.166 10.597C165.15 10.597 164.254 11.861 164.046 13.221H163.95C163.726 11.701 162.75 10.597 160.942 10.597C158.958 10.597 158.094 11.829 157.886 13.157H157.79V10.757H156.206V18.709H157.934Z" fill="black"/>
<path d="M16.9394 4.70898C18.2804 4.70898 19.5704 5.23898 20.5194 6.18998C21.4694 7.13898 22.0004 8.41898 22.0004 9.75898V17.659C22.0004 20.449 19.7304 22.709 16.9394 22.709H7.06043C4.26943 22.709 2.00043 20.449 2.00043 17.659V9.75898C2.00043 6.96898 4.25943 4.70898 7.06043 4.70898H16.9394ZM18.0704 9.90898C17.8604 9.89798 17.6604 9.96898 17.5094 10.109L13.0004 13.709C12.4204 14.19 11.5894 14.19 11.0004 13.709L6.50043 10.109C6.18943 9.87898 5.75943 9.90898 5.50043 10.179C5.23043 10.449 5.20043 10.879 5.42943 11.179L5.56043 11.309L10.1104 14.859C10.6704 15.299 11.3494 15.539 12.0604 15.539C12.7694 15.539 13.4604 15.299 14.0194 14.859L18.5304 11.249L18.6104 11.169C18.8494 10.879 18.8494 10.459 18.5994 10.169C18.4604 10.02 18.2694 9.92898 18.0704 9.90898Z" fill="#FF5555"/>
</svg>
